<svg xmlns="http://www.w3.org/2000/svg" width="33.6mm" height="13.1mm" viewBox="0 0 95.2 37.2"><g id="a366a260-3dc1-461b-9476-992f7f3b0b1a" data-name="Layer 2"><g id="bfe39b81-56fc-4d47-bdcc-93122f3f8a6a" data-name="Layer 1"><path d="M55.4.2c.1-.3.3-.2.5-.2H76.2a1.3,1.3,0,0,1,1,.4C81.1,4.4,85,8.3,89,12.2l5.9,5.9c.3.4.4.6,0,.9-5.6,5.6-11.2,11.1-16.6,16.7a4.8,4.8,0,0,1-3.8,1.5H55.2l1-1,5.9-6,9.5-9.4L73.4,19c.4-.4.3-.6,0-.8l-4.8-4.8-2.5-2.5C64.2,9,62.4,7.1,60.5,5.3L58.6,3.5a6.3,6.3,0,0,1-1.2-1.1C56.8,1.5,56,1,55.4.2Z" style="fill:#39b8eb"/><path d="M39.7,37.2H18.8a1,1,0,0,1-.8-.4c-4.8-4.7-9.5-9.5-14.3-14.3L.3,19.2c-.4-.4-.4-.6,0-1C6.2,12.3,12.1,6.3,18.1.4a1.2,1.2,0,0,1,.8-.4H39a1.6,1.6,0,0,1,.9.2L37,3,22.8,17.2l-.7.7c-.8.8-.8.8-.1,1.6l3.3,3.3L29,26.3v.2L37.6,35A21.8,21.8,0,0,1,39.7,37.2Z" style="fill:#39b8eb"/><path d="M39.7,37.2A21.8,21.8,0,0,0,37.6,35l-8.5-8.5v-.2c.8-.6,1.4-1.3,2.2-2L48,7.5c2.3-2.4,4.7-4.7,7-7l.4-.3c.6.8,1.4,1.3,2,2.2a6.3,6.3,0,0,0,1.2,1.1l1.9,1.8c1.9,1.8,3.7,3.7,5.6,5.6l-9.9,9.9-8.9,8.9-7,7.2C40.1,37,40,37.3,39.7,37.2Z" style="fill:#334b9b"/></g></g></svg>